<svg xmlns="http://www.w3.org/2000/svg" viewBox="0 0 100 100">
  <!-- Wine background, matching the packaging -->
  <circle cx="50" cy="50" r="50" fill="#4a0e1a"/>
  <!-- Logo scaled & centered within the circle -->
  <g transform="translate(13 4) scale(0.74)"
     fill="none" stroke="#d4b88a"
     stroke-width="3.6" stroke-linecap="round" stroke-linejoin="round">
    <path d="M 56 20 C 64 10 78 6 86 12 C 92 18 88 26 82 24 C 78 22 78 20 80 18"/>
    <path d="M 28 38 C 16 38 8 32 8 24 C 8 18 14 16 18 20 C 16 12 22 8 27 12 C 25 4 33 4 32 12 C 38 8 44 14 42 20 C 46 16 50 20 50 24 C 50 32 40 38 28 38 Z"/>
    <path d="M 28 38 L 26 12"/>
    <path d="M 22 22 L 12 22"/>
    <path d="M 24 30 L 14 32"/>
    <path d="M 28 20 L 36 14"/>
    <path d="M 30 26 L 42 24"/>
    <path d="M 52 26 C 56 22 62 24 62 28 C 62 32 56 34 52 32 C 50 30 50 28 52 26 Z"/>
    <path d="M 56 32 L 56 26"/>
    <circle cx="32" cy="58" r="7"/>
    <circle cx="48" cy="58" r="7"/>
    <circle cx="64" cy="58" r="7"/>
    <circle cx="40" cy="72" r="7"/>
    <circle cx="56" cy="72" r="7"/>
    <circle cx="48" cy="86" r="7"/>
    <path d="M 48 95 C 42 100 42 112 48 116 C 54 112 54 100 48 95 Z"/>
    <path d="M 39 113 C 33 116 30 112 33 107"/>
  </g>
</svg>
